<?xml version="1.0" encoding="UTF-8"?>
<svg version="1.1" xmlns="http://www.w3.org/2000/svg" width="114" height="119">
<path d="M0 0 C15.0766287 0 23.53525909 1.08089839 34.375 10.9375 C36.52841103 13.1413816 36.96116088 13.70223345 37.375 16.875 C37.189375 17.926875 37.189375 17.926875 37 19 C34.5 19.9375 34.5 19.9375 31 20 C28.8610516 18.44847768 27.049828 16.68087085 25.140625 14.85546875 C19.69065809 10.13150108 14.04699253 9.00671322 7 8 C6.67 28.13 6.34 48.26 6 69 C18.92588345 65.76852914 26.07717165 62.97762781 33 52 C33.495 51.01 33.495 51.01 34 50 C33.01257813 49.93941406 32.02515625 49.87882812 31.0078125 49.81640625 C29.72648437 49.73261719 28.44515625 49.64882813 27.125 49.5625 C25.84882812 49.48128906 24.57265625 49.40007813 23.2578125 49.31640625 C20 49 20 49 18 48 C18 46.02 18 44.04 18 42 C21.88691948 40.05654026 26.72514581 40.81519197 31 40.8125 C32.53527344 40.79413086 32.53527344 40.79413086 34.1015625 40.77539062 C35.07867187 40.77345703 36.05578125 40.77152344 37.0625 40.76953125 C38.41021484 40.76336792 38.41021484 40.76336792 39.78515625 40.75708008 C42 41 42 41 44 43 C43.83919152 52.00527485 39.995717 59.20800524 33.9375 65.75 C23.70340628 75.43461218 13.88605792 77 0 77 C0 51.59 0 26.18 0 0 Z " fill="#2A3D90" transform="translate(53,12)"/>
<path d="M0 0 C1.47127305 1.94587727 2.92655144 3.89491872 4.32421875 5.89453125 C12.84702448 17.88506883 24.28694255 24.66079894 38.72265625 27.52734375 C52.52241757 29.51753579 67.48407246 27.34425803 79 19 C86.00974785 13.52261564 91.26304283 7.51325325 96 0 C96.495 0.99 96.495 0.99 97 2 C91.21435266 16.71604593 82.494083 28.83088368 68 36 C55.66017416 41.23507763 43.64248276 41.6377158 30.97265625 37.265625 C26.52591668 35.3724008 22.79381999 32.97232354 19 30 C18.38640625 29.54882812 17.7728125 29.09765625 17.140625 28.6328125 C9.34460695 22.52708155 3.50238559 13.1998147 0 4 C0 2.68 0 1.36 0 0 Z " fill="#2A3C91" transform="translate(9,73)"/>
<path d="M0 0 C0 2.64 0 5.28 0 8 C-0.6290625 8.25652344 -1.258125 8.51304688 -1.90625 8.77734375 C-9.9968991 12.39620336 -15.69357975 16.92333394 -19.41796875 25.12109375 C-22.79464868 34.90539838 -22.66612525 41.87181499 -18.375 51.25 C-13.92126784 59.52121687 -8.38579826 63.17489904 0 67 C0 69.64 0 72.28 0 75 C-7.75107412 74.40376353 -15.81932795 69.75630227 -21 64 C-29.39864561 52.58918191 -31.48812304 41.8870772 -30 28 C-27.43698336 17.24725111 -21.01435057 9.23750866 -11.6875 3.5 C-7.59672099 1.18809978 -4.79921158 0 0 0 Z " fill="#2A3D90" transform="translate(51,13)"/>
</svg>
